<svg xmlns="http://www.w3.org/2000/svg" viewBox="0 0 256 45"> <path d="M74.14,21.16l7.53-7.75H76.51l-7.22,7.66V13.41H65v18.2h4.25V26l2-2,5.56,7.53,0,.06H82Z"></path> <path d="M90.14,27.86V24.32H98.7V20.57H90.14V17.16h9.75V13.41h-14v18.2H100V27.86Z"></path> <path d="M110,27.79V13.41h-4.24v18.2h13.32V27.79Z"></path> <path d="M132.41,13.41l-4.68,12.42-4.65-12.35,0-.07h-4.66l7.42,18.25,0,.07h3.68l7.4-18.16.05-.17Z"></path> <path d="M145.82,13.41h-4.25v18.2h4.25Z"></path> <path d="M163.95,13.41V24.25l-8.33-10.8,0,0h-3.86v18.2h4.19V20.43l8.6,11.13,0,.06h3.57V13.41Z"></path> <path d="M175.77,15.27V13.43h14.34V14.8L178.2,29.72h11.92v1.85H175.39V30.2l11.9-14.93Z"></path> <path d="M210.18,15.29H199v6.2h10v1.86H199v6.35H210.3v1.86H196.89V13.43h13.28Z"></path> <path d="M229.76,31.57l-5.34-7h-5.25v7H217.1V13.43H225c4,0,6.65,2.16,6.65,5.43,0,3-2.1,4.8-5,5.31l5.65,7.42h-2.55Zm-4.92-16.24h-5.67v7.36h5.65c2.75,0,4.72-1.4,4.72-3.76S227.81,15.33,224.84,15.33Z"></path> <path d="M246.58,31.88a9.17,9.17,0,0,1-9.35-9.36,9.27,9.27,0,0,1,9.4-9.41A9.17,9.17,0,0,1,256,22.47,9.25,9.25,0,0,1,246.58,31.88Zm0-16.87a7.18,7.18,0,0,0-7.2,7.47A7.25,7.25,0,0,0,246.63,30a7.18,7.18,0,0,0,7.2-7.47A7.26,7.26,0,0,0,246.58,15Z"></path> <path d="M40.41,22.76A18.57,18.57,0,0,1,22,41.2,18.56,18.56,0,0,1,3.63,22.5,18.58,18.58,0,0,1,22,3.8,18,18,0,0,1,32.45,7.11a9.26,9.26,0,0,1,3-2.44A21.54,21.54,0,0,0,22,0,22.3,22.3,0,0,0,0,22.5,22.3,22.3,0,0,0,22,45,22.28,22.28,0,0,0,44,22.5c0-.33,0-.65-.05-1A8.7,8.7,0,0,1,40.41,22.76Z"></path> <path d="M39.38,19.17a5.78,5.78,0,0,1-5.63-5.91,5.63,5.63,0,1,1,11.25,0A5.78,5.78,0,0,1,39.38,19.17Zm0-8.57a2.68,2.68,0,1,0,2.55,2.67A2.62,2.62,0,0,0,39.38,10.6Z"></path> <path d="M26.56,32.4l-5.73-8.26-2.15,2.33V32.4H14.48V13h4.21v7.9l7.1-7.9H31.1l-7.53,8.24L31.44,32.4Z"></path> </svg>